<?xml version="1.0" encoding="UTF-8"?>
<svg width="32px" height="24px" viewBox="0 0 32 24" version="1.1" xmlns="http://www.w3.org/2000/svg" xmlns:xlink="http://www.w3.org/1999/xlink">
    <title>二阶贝塞尔曲线1备份 14</title>
    <g id="二阶贝塞尔曲线1备份-14" stroke="none" stroke-width="1" fill="none" fill-rule="evenodd">
        <path d="M28.712,17.602 L30.588843,20.0562209 L29.0000589,21.2710316 L27.179,18.889 L28.712,17.602 Z M3.037,17.392 L4.57,18.679 L2.58878414,21.2710316 L1,20.0562209 L3.037,17.392 Z M26.28,14.422 L27.496,16.012 L25.963,17.299 L24.747,15.708 L26.28,14.422 Z M5.469,14.211 L7.002,15.498 L5.786,17.088 L4.253,15.802 L5.469,14.211 Z M23.848,11.241 L25.064,12.831 L23.531,14.118 L22.314,12.527 L23.848,11.241 Z M7.901,11.031 L9.434,12.317 L8.218,13.908 L6.684,12.621 L7.901,11.031 Z M21.416,8.06 L22.632,9.65 L21.098,10.937 L19.882,9.347 L21.416,8.06 Z M10.333,7.849 L11.866,9.136 L10.65,10.727 L9.117,9.44 L10.333,7.849 Z M17.0092322,2.41131961 C17.1498952,2.51887292 17.2756523,2.64463001 17.3832056,2.78529309 L20.2,6.469 L18.666,7.756 L15.7944215,4.00010375 L13.082,7.546 L11.549,6.259 L14.2056374,2.78529309 C14.8765588,1.90783184 16.1317709,1.7403982 17.0092322,2.41131961 Z" id="形状结合" fill="#222222"></path>
    </g>
</svg>