<?xml version="1.0" encoding="UTF-8"?>
<svg width="30px" height="32px" viewBox="0 0 30 32" version="1.1" xmlns="http://www.w3.org/2000/svg" xmlns:xlink="http://www.w3.org/1999/xlink">
    <title>二阶贝塞尔曲线1备份 15</title>
    <g id="二阶贝塞尔曲线1备份-15" stroke="none" stroke-width="1" fill="none" fill-rule="evenodd">
        <path d="M3.178,20.608 L4.693,21.879 L3,24.0641991 L6.999,24.064 L6.999,26 L1,26 C0.44771525,26 -1.77635684e-15,25.5667284 -1.77635684e-15,25.0322608 C-1.77635684e-15,24.8228709 0.0701778719,24.6191293 0.2,24.4516173 L3.178,20.608 Z M10.999,24.064 L10.999,26 L8.999,26 L8.999,24.064 L10.999,24.064 Z M16.999,24.064 L16.999,26 L12.999,26 L12.999,24.064 L16.999,24.064 Z M20.999,24.064 L20.999,26 L18.999,26 L18.999,24.064 L20.999,24.064 Z M26.821,20.608 L29.8,24.4516173 C30.1313708,24.8791914 30.0418278,25.4857716 29.6,25.8064522 C29.4269038,25.9320861 29.2163702,26 29,26 L22.999,26 L22.999,24.064 L27,24.0641991 L25.306,21.879 L26.821,20.608 Z M5.63,17.444 L7.145,18.715 L5.919,20.297 L4.404,19.026 L5.63,17.444 Z M24.369,17.444 L25.595,19.026 L24.08,20.297 L22.854,18.715 L24.369,17.444 Z M8.082,14.279 L9.597,15.55 L8.371,17.133 L6.856,15.862 L8.082,14.279 Z M21.916,14.28 L23.143,15.862 L21.628,17.133 L20.402,15.551 L21.916,14.28 Z M10.534,11.116 L12.049,12.387 L10.823,13.969 L9.308,12.697 L10.534,11.116 Z M19.464,11.116 L20.69,12.698 L19.176,13.969 L17.95,12.387 L19.464,11.116 Z M15.6,6.19360479 C15.6758057,6.24862487 15.7431458,6.31379251 15.8,6.38715263 L18.238,9.534 L16.723,10.805 L15,8.58037219 L13.275,10.804 L11.761,9.533 L14.2,6.38715263 C14.5313708,5.95957855 15.1581722,5.87292423 15.6,6.19360479 Z" id="形状结合" fill="#222222" fill-rule="nonzero" transform="translate(15.000029, 16.000000) rotate(90.000000) translate(-15.000029, -16.000000) "></path>
    </g>
</svg>