<?xml version="1.0" encoding="UTF-8"?>
<svg width="32px" height="24px" viewBox="0 0 32 24" version="1.1" xmlns="http://www.w3.org/2000/svg" xmlns:xlink="http://www.w3.org/1999/xlink">
    <title>二阶贝塞尔曲线1备份 15</title>
    <g id="二阶贝塞尔曲线1备份-15" stroke="none" stroke-width="1" fill="none" fill-rule="evenodd">
        <path d="M4.178,16.608 L5.693,17.879 L4,20.0641991 L7.999,20.064 L7.999,22 L2,22 C1.44771525,22 1,21.5667284 1,21.0322608 C1,20.8228709 1.07017787,20.6191293 1.2,20.4516173 L4.178,16.608 Z M11.999,20.064 L11.999,22 L9.999,22 L9.999,20.064 L11.999,20.064 Z M17.999,20.064 L17.999,22 L13.999,22 L13.999,20.064 L17.999,20.064 Z M21.999,20.064 L21.999,22 L19.999,22 L19.999,20.064 L21.999,20.064 Z M27.821,16.608 L30.8,20.4516173 C31.1313708,20.8791914 31.0418278,21.4857716 30.6,21.8064522 C30.4269038,21.9320861 30.2163702,22 30,22 L23.999,22 L23.999,20.064 L28,20.0641991 L26.306,17.879 L27.821,16.608 Z M6.63,13.444 L8.145,14.715 L6.919,16.297 L5.404,15.026 L6.63,13.444 Z M25.369,13.444 L26.595,15.026 L25.08,16.297 L23.854,14.715 L25.369,13.444 Z M9.082,10.279 L10.597,11.55 L9.371,13.133 L7.856,11.862 L9.082,10.279 Z M22.916,10.28 L24.143,11.862 L22.628,13.133 L21.402,11.551 L22.916,10.28 Z M11.534,7.116 L13.049,8.387 L11.823,9.969 L10.308,8.697 L11.534,7.116 Z M20.464,7.116 L21.69,8.698 L20.176,9.969 L18.95,8.387 L20.464,7.116 Z M16.6,2.19360479 C16.6758057,2.24862487 16.7431458,2.31379251 16.8,2.38715263 L19.238,5.534 L17.723,6.805 L16,4.58037219 L14.275,6.804 L12.761,5.533 L15.2,2.38715263 C15.5313708,1.95957855 16.1581722,1.87292423 16.6,2.19360479 Z" id="形状结合" fill="#222222" fill-rule="nonzero"></path>
    </g>
</svg>