<?xml version="1.0" encoding="UTF-8"?>
<svg width="30px" height="32px" viewBox="0 0 30 32" version="1.1" xmlns="http://www.w3.org/2000/svg" xmlns:xlink="http://www.w3.org/1999/xlink">
    <title>二阶贝塞尔曲线1备份 14</title>
    <g id="二阶贝塞尔曲线1备份-14" stroke="none" stroke-width="1" fill="none" fill-rule="evenodd">
        <path d="M27.712,21.602 L29.588843,24.0562209 L28.0000589,25.2710316 L26.179,22.889 L27.712,21.602 Z M2.037,21.392 L3.57,22.679 L1.58878414,25.2710316 L4.54747351e-13,24.0562209 L2.037,21.392 Z M25.28,18.422 L26.496,20.012 L24.963,21.299 L23.747,19.708 L25.28,18.422 Z M4.469,18.211 L6.002,19.498 L4.786,21.088 L3.253,19.802 L4.469,18.211 Z M22.848,15.241 L24.064,16.831 L22.531,18.118 L21.314,16.527 L22.848,15.241 Z M6.901,15.031 L8.434,16.317 L7.218,17.908 L5.684,16.621 L6.901,15.031 Z M20.416,12.06 L21.632,13.65 L20.098,14.937 L18.882,13.347 L20.416,12.06 Z M9.333,11.849 L10.866,13.136 L9.65,14.727 L8.117,13.44 L9.333,11.849 Z M16.0092322,6.41131961 C16.1498952,6.51887292 16.2756523,6.64463001 16.3832056,6.78529309 L19.2,10.469 L17.666,11.756 L14.7944215,8.00010375 L12.082,11.546 L10.549,10.259 L13.2056374,6.78529309 C13.8765588,5.90783184 15.1317709,5.7403982 16.0092322,6.41131961 Z" id="形状结合" fill="#222222" transform="translate(14.794421, 15.635516) rotate(90.000000) translate(-14.794421, -15.635516) "></path>
    </g>
</svg>